<?xml version="1.0" encoding="utf-8"?>
<!-- Generator: Adobe Illustrator 16.0.0, SVG Export Plug-In . SVG Version: 6.00 Build 0)  -->
<!DOCTYPE svg PUBLIC "-//W3C//DTD SVG 1.1//EN" "http://www.w3.org/Graphics/SVG/1.1/DTD/svg11.dtd">
<svg version="1.1" id="Layer_1" xmlns="http://www.w3.org/2000/svg" xmlns:xlink="http://www.w3.org/1999/xlink" x="0px" y="0px"
	 width="1080px" height="882.088px" viewBox="0 0 1080 882.088" enable-background="new 0 0 1080 882.088" xml:space="preserve">
<rect fill="#01C7F4" width="1080.001" height="882.088"/>
<g>
	<g>
		<path fill="#FFFFFF" d="M718.108,470.4c-20.65-131.92-157.766-268.894-163.606-274.672l-13.973-13.83l-13.593,14.24
			C421.27,306.904,365.003,403.982,359.683,484.656c-1.042,8.367-1.531,15.551-1.531,22.529
			c0,100.268,81.574,181.842,181.841,181.842c100.283,0,181.857-81.574,181.857-181.842
			C721.85,494.887,720.587,482.525,718.108,470.4z M539.992,676.35c-92.468,0-167.695-79.158-167.695-171.627
			c0-6.434,0.458-13.057,1.421-20.775c4.902-74.399,56.788-163.923,154.237-266.077l12.543-13.127l12.867,12.748
			c5.391,5.328,131.842,131.653,150.882,253.312c2.289,11.178,3.457,22.576,3.457,33.92
			C707.704,597.191,632.477,676.35,539.992,676.35z"/>
	</g>
	<g>
		<g id="Your_Icon_7_" opacity="0.5">
			<path fill="#FFFFFF" d="M721.834,501.506c0,100.229-81.566,181.873-181.873,181.873c-99.588,0-180.752-80.596-181.715-179.939
				c-0.079-0.971-0.079-1.617-0.079-1.934c0-0.086,0-0.166,0-0.166c15.835,0,30.067-9.543,37.18-24.896
				c1.452-3.15,4.689-5.25,8.241-5.25c3.481,0,6.71,2.1,8.162,5.25c7.12,15.354,21.345,24.896,37.108,24.896
				c15.922,0,30.068-9.543,37.188-24.896c1.453-3.15,4.681-5.25,8.32-5.25c3.474,0,6.71,2.1,8.163,5.25
				c7.12,15.354,21.344,24.896,37.101,24.896c15.851,0,30.075-9.543,37.188-24.896c1.452-3.15,4.681-5.25,8.249-5.25
				c3.552,0,6.701,2.1,8.162,5.25c7.104,15.354,21.337,24.896,37.101,24.896c15.922,0,30.067-9.543,37.259-24.896
				c1.453-3.15,4.61-5.25,8.249-5.25c3.474,0,6.702,2.1,8.162,5.25c7.112,15.354,21.337,24.896,37.101,24.896c0,0,0,0.08,0,0.166
				H721.834z"/>
		</g>
		<g id="Your_Icon_6_" opacity="0.6">
			<path fill="#FFFFFF" d="M712.732,559.297l4.002-14.178c-13.908-1.65-26.12-10.76-32.546-24.621
				c-1.452-3.156-4.673-5.256-8.162-5.256c-3.631,0-6.788,2.1-8.241,5.256c-7.199,15.361-21.345,24.898-37.259,24.898
				c-15.771,0-29.996-9.537-37.101-24.898c-1.452-3.156-4.609-5.256-8.162-5.256c-3.568,0-6.789,2.1-8.257,5.256
				c-7.104,15.361-21.329,24.898-37.18,24.898c-15.757,0-29.981-9.537-37.101-24.898c-1.453-3.156-4.689-5.256-8.162-5.256
				c-3.631,0-6.868,2.1-8.32,5.256c-7.121,15.361-21.267,24.898-37.196,24.898c-15.756,0-29.98-9.537-37.101-24.898
				c-1.452-3.156-4.689-5.256-8.162-5.256c-3.552,0-6.789,2.1-8.241,5.256c-6.307,13.617-18.211,22.656-31.867,24.535l5.518,18.139
				c25.3,70.004,92.389,120.207,171.043,120.207c80.027,0,148.167-51.98,172.338-123.916c0.079-0.088,0.157-0.166,0.079-0.254"/>
			<path fill="#FFFFFF" d="M721.306,545.553"/>
		</g>
		<path opacity="0.5" fill="#FFFFFF" d="M701.562,584.889c-8.352-4.191-15.321-11.391-19.655-20.736
			c-1.452-3.158-4.673-5.258-8.162-5.258c-3.631,0-6.788,2.1-8.241,5.258c-7.199,15.361-21.345,24.896-37.259,24.896
			c-15.771,0-29.996-9.535-37.101-24.896c-1.452-3.158-4.61-5.258-8.162-5.258c-3.568,0-6.789,2.1-8.257,5.258
			c-7.104,15.361-21.329,24.896-37.18,24.896c-15.757,0-29.981-9.535-37.101-24.896c-1.453-3.158-4.689-5.258-8.163-5.258
			c-3.631,0-6.867,2.1-8.32,5.258c-7.12,15.361-21.266,24.896-37.196,24.896c-15.756,0-29.98-9.535-37.101-24.896
			c-1.452-3.158-4.689-5.258-8.162-5.258c-3.552,0-6.789,2.1-8.241,5.258c-3.679,7.924-9.236,14.303-15.945,18.613
			c0,0,6.709,11.887,11.541,19.363c14.414,22.26,63.245,81.25,149.098,81.25c70.176,0,132.048-37.234,162.305-95.586
			L701.562,584.889z"/>
	</g>
</g>
<g>
	<g>
		<path fill="#FFFFFF" d="M884.771,334.533c1.935,0,1.935-3,0-3S882.837,334.533,884.771,334.533L884.771,334.533z"/>
	</g>
</g>
</svg>
