<?xml version="1.0" encoding="utf-8"?>
<!-- Generator: Adobe Illustrator 16.0.0, SVG Export Plug-In . SVG Version: 6.00 Build 0)  -->
<!DOCTYPE svg PUBLIC "-//W3C//DTD SVG 1.1//EN" "http://www.w3.org/Graphics/SVG/1.1/DTD/svg11.dtd">
<svg version="1.1" id="Layer_1" xmlns="http://www.w3.org/2000/svg" xmlns:xlink="http://www.w3.org/1999/xlink" x="0px" y="0px"
	 width="387.816px" height="595.28px" viewBox="0 0 387.816 595.28" enable-background="new 0 0 387.816 595.28"
	 xml:space="preserve">
<path fill="#58595B" d="M329.29,274.29c0-19.571-10.274-22.959-22.961-22.959c-12.684,0-22.962,10.277-22.962,22.959v89.536h-9.181
	V115.871c0-12.683-10.278-22.959-22.965-22.959c-12.684,0-22.957,10.276-22.957,22.959v176.781h-9.186V88.317
	c0.005-12.671-10.278-22.959-22.957-22.959s-22.957,10.288-22.957,22.959v204.335h-9.185V115.871
	c0-12.683-10.279-22.959-22.957-22.959c-12.683,0-22.961,10.276-22.961,22.959v190.562h-9.185V198.521
	c0-12.676-10.279-22.959-22.957-22.959s-22.961,10.283-22.961,29.85v190.564c0.022,59.774,59.612,119.364,133.163,119.382
	c73.556-0.018,133.15-59.607,133.167-133.163l0.004-0.009L329.29,274.29z"/>
<path fill="#00AEEF" d="M196.479,317.358c-6.025,48.077-41.271,81.914-41.271,104.709c0,22.812,18.478,41.291,41.271,41.291
	s41.271-18.479,41.271-41.291C237.75,399.272,202.505,365.436,196.479,317.358z M216.837,447.542c0,0,16.901-23.668,3.1-52.336
	C224.881,403.646,243.226,429.824,216.837,447.542z"/>
</svg>
