<?xml version="1.0" encoding="utf-8"?>
<!-- Generator: Adobe Illustrator 16.0.0, SVG Export Plug-In . SVG Version: 6.00 Build 0)  -->
<!DOCTYPE svg PUBLIC "-//W3C//DTD SVG 1.1//EN" "http://www.w3.org/Graphics/SVG/1.1/DTD/svg11.dtd">
<svg version="1.1" id="Layer_1" xmlns="http://www.w3.org/2000/svg" xmlns:xlink="http://www.w3.org/1999/xlink" x="0px" y="0px"
	 width="463.074px" height="595.28px" viewBox="0 0 463.074 595.28" enable-background="new 0 0 463.074 595.28"
	 xml:space="preserve">
<path fill="#00AEEF" d="M363.475,274.29c0-19.571-10.273-22.959-22.961-22.959c-12.684,0-22.961,10.277-22.961,22.959v89.536h-9.182
	V115.871c0-12.683-10.277-22.959-22.965-22.959c-12.684,0-22.957,10.276-22.957,22.959v176.781h-9.186V88.317
	c0.006-12.671-10.277-22.959-22.955-22.959c-12.68,0-22.958,10.288-22.958,22.959v204.335h-9.186V115.871
	c0-12.683-10.279-22.959-22.957-22.959c-12.682,0-22.961,10.276-22.961,22.959v190.562h-9.186V198.521
	c0-12.676-10.277-22.959-22.957-22.959c-12.678,0-22.961,10.283-22.961,29.85v190.564c0.021,59.774,59.611,119.364,133.165,119.382
	c73.555-0.018,133.148-59.607,133.166-133.163l0.004-0.009L363.475,274.29z"/>
<path fill="#F1F2F2" d="M230.664,317.358c-6.025,48.077-41.272,81.914-41.272,104.709c0,22.812,18.477,41.291,41.272,41.291
	c22.793,0,41.271-18.479,41.271-41.291C271.936,399.272,236.689,365.436,230.664,317.358z M251.021,447.542
	c0,0,16.902-23.668,3.1-52.336C259.066,403.646,277.41,429.824,251.021,447.542z"/>
</svg>
